<?xml version="1.0" encoding="UTF-8"?>
<svg viewBox="0 0 170.67 170.67" xmlns="http://www.w3.org/2000/svg" xmlns:xlink="http://www.w3.org/1999/xlink">
 <defs>
  <linearGradient id="i" x1="-.6523" x2=".75081" y1="-.31194" y2=".60507" xlink:href="#a"/>
  <linearGradient id="l" x1=".52886" x2=".027186" y1=".5" y2=".092493">
   <stop stop-color="#004c32" offset="0"/>
   <stop stop-color="#1b3129" offset="1"/>
  </linearGradient>
  <linearGradient id="n" x1="1.5798" x2=".64774" y1=".86262" y2=".63031" xlink:href="#a"/>
  <linearGradient id="m" x1="1.5798" x2=".64774" y1=".86262" y2=".45405" xlink:href="#a"/>
  <linearGradient id="k" x1=".37321" x2=".5" y1=".034361" y2="2.1337" xlink:href="#b"/>
  <linearGradient id="j" x1=".41065" x2=".36703" y1=".19196" y2="1.7846" xlink:href="#b"/>
  <linearGradient id="a">
   <stop stop-color="#fff" offset="0"/>
   <stop stop-color="#fff" stop-opacity="0" offset="1"/>
  </linearGradient>
  <linearGradient id="b">
   <stop offset="0"/>
   <stop stop-color="#fff" offset="1"/>
  </linearGradient>
 </defs>
 <path d="m75.927 8.9114c4.9396 7.579-4.7388 5.4505-9.1586 6.8778 6.5787 3.5711 21.185 4.2642 5.295 6.1487-9.1744 4.8795 4.43 0.24063 7.4042 2.9386 6.0946 4.3463 1.0719 11.207-6.8541 10.968-13.491 5.4297-25.059 15.661-25.205 27.731-1.0148 8.7761-15.344-1.677-18.321 6.2236-4.0711 6.2275-5.036 13.979-15.288 7.1059-7.1253 3.5787 12.52 5.2812 3.5407 9.408-12.235 1.7782 0.41287 4.8299 6.1277 2.1619 3.7674-1.8361-8.5497 13.386 1.5456 5.8573 3.82-6.762 11.573 10.975 12.491 0.92754-1.7208-3.4785-7.9026-11.179 1.2217-11.762 14.84 1.5407 13.815 15.142 18.02 23.253 5.0896 12.667 25.142 14.692 34.713 24.286 6.3792 12.84-11.233 23.835-25.928 27.247-12.659 3.8686-27.809 5.1786-39.126-1.7673-7.8824-4.2689-17.618-9.0138-17.892-17.177 0.56184 17.65 25.058 30.02 47.25 27.31 21.36-0.79883 45.464-7.7045 53.096-24.193 6.3262-13.078-0.74169-29.926-19.34-34.496-8.6424-2.4262-19.621-7.7121-14.96-15.874 5.8884-3.6822 14.044-6.9873 20.206-11.047 9.7175-2.4117 10.167 9.5196 8.12 13.684-8.703 5.6596-0.90036 6.3831 4.7681 2.1738 2.3117 2.1208 9.5731 9.991 9.6306 3.2429-5.3554-8.1879 5.9855-4.3809 11.283-3.1716 4.6452-3.7559-13.817-3.5756-8.2616-8.8378 11.113-3.4154 0.58235-8.2041-5.243-2.8194-4.9716 2.7839-7.2846-5.9765-10.525-8.3347-2.0832-6.2247-14.488-3.125-14.776-9.4436 0.23959-3.667 9.6082-12.689 10.985-8.4555-0.17583 6.3616 6.02 10.163 14.108 9.8585 5.6172 0.45522 5.7171 7.2979 11.871 6.7577-4.4331-8.8504 7.1484 0.037567 9.023-2.5989-13.242-4.5972 10.908-6.1661 1.6478-7.6447-10.63 1.6285-11.112 3.3836-6.2803-5.1513-6.3908-2.7896-8.3532 7.4178-15.815 2.1025-7.9125-4.0606 2.2176-11.712 9.5834-9.7287 13.853 2.6279 26.971-3.9184 38.664-8.6596 9.0222-7.1133-3.9337-14.408-12.358-16.825-9.1332-3.8681-21.058-7.9862-29.941-1.4211-8.502 4.6741-16.536-3.3618-25.669-2.1707-6.4328 0.12541-13.089-5.7682-4.9226-8.5915 5.958-6.7612-9.1383-1.317-8.9697 3.5993-0.65767-3.3609 0.3427-9.5036-5.7595-9.6931z" opacity=".2"/>
 <path d="m75.455 7.9492c1.5686 6.3144-1.2152 6.5322-9.1259 6.3954-4.0158 3.8449 10.934 4.8167 9.5416 5.9407-6.6504-0.9773-12.466 6.9526-3.0805 5.1178 6.9563-4.2002 12.334 7.8658 3.8922 8.6676-12.212 2.0962-20.975 10.291-27.101 18.033-3.8827 4.3484-0.58001 11.01-5.7567 14.503-5.1705 0.088936-11.898-3.2221-14.835 1.8816-4.0254 2.4984-3.9347 9.1316-7.3916 10.306-3.3567-2.86-13.987-3.7364-9.5589 1.5219 5.7403 1.0228 8.8215 5.9394 0.91105 5.9974-7.2392 2.6315 2.8042 5.5245 6.5446 3.6 8.8616-2.1622-4.3062 4.5532 0.7256 7.376 4.9426 2.2767 6.3854-7.0502 9.8587-1.9808 1.2189 5.3254 11.027 5.1637 8.5056-0.87012-1.2295-3.0394-7.3939-8.618-0.42488-10.156 12.416 0.98216 14.141 12.257 15.91 19.636 3.5804 12.276 19.775 17.761 32.385 23.983 10.374 6.2508 3.8388 18.021-5.2491 22.848-10.96 6.6443-25.548 10.067-39.464 9.8873-11.572-2.1217-22.052-7.8758-29.456-14.732-2.6563-2.099-3.068-13.35-4.7678-7.512-0.59354 15.854 19.132 29.117 39.667 29.286 17.554 0.048904 36.716-2.541 50.401-11.345 15.197-9.6622 19.795-28.332 7.8212-40.657-6.8073-8.2861-22.681-8.2331-29.568-16.06-2.5794-3.8335-0.84283-9.16 5.3051-10.097 6.3201-1.8233 10.322-7.6315 17.019-8.0536 5.6603 2.2019 4.624 8.809 4.0128 12.615-5.9882 1.133-5.771 10.622 1.133 5.9156 3.7409-4.3241 7.2418-0.10783 8.6006 2.9836 7.1473 3.0094 8.3237-3.0595 4.8539-6.5829 3.853-3.543 8.9468 4.4626 13.738 0.71272 3.2393-4.9854-13.579-3.8164-8.8753-8.8378 7.3978-1.3964 6.2763-8.2058-1.7669-6.0515-5.0427 2.6248-8.4735 4.2115-11.027-1.3965-3.3755-4.4216-7.2896-10.269-15.154-10.049-6.8671-3.1493 1.0096-9.2939 5.0754-11.775 2.4034 1.3109 1.811 10.202 9.1818 9.7791 5.1105 0.47995 10.602 1.168 12.605 5.3454 4.0169 3.9313 9.1341 2.8533 6.9397-1.9244 3.9068 3.4937 13.979 3.4857 7.1085-1.7246-3.8683-2.0532 13.262-3.4862 5.1366-5.5543-7.5978-1.3705-12.631 3.3749-7.469-4.2306-2.553-5.8908-9.2702 2.2878-12.283 1.8594-5.7091 0.16022-8.5906-4.5633-4.2008-7.384 8.1414-4.219 18.845 1.7912 27.171-2.7906 8.0429-2.9175 18.544-4.2941 23.71-10.142 4.6598-7.5123-6.2359-12.627-13.838-15.374-8.977-3.3505-20.139-8.6062-29.528-3.1299-4.6163 3.2621-10.983 3.4338-16.06 0.6909-5.909-2.6381-16.115 0.067852-19.403-5.3889 0.49225-3.0916 10.535-5.311 3.8712-8.2676-6.52-2.4612-9.8565 10.327-9.7251 1.1404-0.97829-1.7646-3.5933-4.483-6.5148-3.9556z" opacity=".2"/>
 <path d="m136.22 20.381c-2.0524-0.45489-4.164 0.31602-6.4099 0.38718-7.6466 0.24228-11.301 7.6252-19.01 3.8813-9.7761-4.6508-15.256-0.64527-20.825-4.5751-5.1396-2.2065 9.4719-5.0532 4.4842-8.5878-2.2351-2.6853-8.317-3.2336-11.125 2.1448 0.74324-5.3408-10.527-10.221-9.891-3.3185 2.9946 4.6173 1.6261 3.2672-5.1018 2.488-10.147 2.0042 0.17014 6.9281 4.5962 7.1909-4.4161-0.61305-12.838 6.2952-0.74395 6.8891 6.1755-5.7291 11.48 5.8797 4.147 6.377-8.3838 0.72455-14.322 5.7155-19.83 9.9657-8.3924 6.4765-10.593 11.979-10.9 18.837-0.289 6.4545-5.6393 2.6678-10.795 2.5252-6.4283-0.58642-11.198 8.9548-12.854 13.379-7.5773-2.8838-9.3667-4.393-11.802-0.84531-3.9337 5.7298 11.529 5.3344 5.734 7.8928-11.043 0.6155-8.5201 8.748 5.0404 5.5702-8.3628 7.549 2.857 10.191 5.2091 5.7276 1.8986-4.0727 3.0468-0.18022 4.5842 1.8496 8.459 6.9665 12.361-3.1403 6.0842-8.4895-3.5601-5.7842 4.4503-5.6688 9.034-1.6923 5.7444 4.9834 4.9162 10.141 7.0824 16.131 6.2165 20.024 37.589 19.945 37.812 31.165 0.38114 19.179-38.807 25.184-47.635 24.781-8.2446-0.37599-23.03-8.1661-29.298-13.716-4.1421-3.6675-1.6302-11.771-6.8378-11.522-2.6371 6.9495 1.1422 14.407 6.4612 20.223 22.919 25.061 75.93 8.944 83.21 3.2208 5.3355-4.195 14.85-10.088 16.322-21.91 1.1593-9.3068-1.1984-14.927-5.1227-19.75-11.128-13.676-37.584-10.218-31.059-24.245 5.7259-1.9394 10.817-4.7439 15.568-7.8127 8.9603-7.1657 9.6048 3.9216 9.1342 8.8617-8.5906 3.7473-5.2754 12.482 2.4592 7.3142 6.7796-5.6921 2.8927 3.1752 9.6925 3.7679 15.132 0.95296-2.0349-11.285 7.4208-7.7096 6.5055 5.7144 19.392-1.481 4.4792-4.9821-11.202-3.0416 5.804-3.9831 2.6489-8.445-2.0624-3.4362-9.2159-3.4212-14.938 0.83746-4.7961-4.201-8.0444-12.691-15.78-13.868-10.661 0.3054-3.2259-7.8552 1.2566-10.143-0.03196 2.086 1.4895 5.8926 4.2093 8.2021 2.4817 1.645 6.8935 1.0462 10.004 2.0436 7.1094-0.47103 4.9905 9.4731 17.124 6.5639-7.1756-10.012 9.2535 6.1984 8.0986-5.0146-3.7297-3.0534-3.8461-1.7128 0.10892-3.0667 14.326-4.0198-4.3322-6.8229-6.5484-4.6391 6.4679-7.2969-5.9484-9.0619-10.347-2.2762-2.514-0.24206-8.5032-1.3672-6.514-4.12 0.005363-0.007469 0.006439-0.013695 0.011925-0.021152 0.033005-0.044815 0.034386-0.081219 0.071655-0.12691 3.3491-6.5392 14.95-1.4318 21.837-2.672 4.1468-0.74672 20.424-6.0224 25.514-8.1872 8.7922-3.7391 8.6539-11.779 1.4533-15.828-7.1621-4.9216-26.84-10.502-27.524-10.654z" opacity=".2"/>
 <path d="m76.258 6.0604c-7.4946-0.30168 0.05175 8.5556-6.1355 6.0879-4.8522-1.3954-10.315 3.9287-4.6913 6.0913 7.3363 1.671-1.3763 3.0977-0.50334 6.3517 1.3939 3.6317 8.0568 3.6615 11.093 1.6789 5.7323 2.4396 1.2603 7.6178-4.45 7.1402-9.6258 3.2508-17.272 9.7252-22.862 16.346-4.3755 4.4222-2.8254 10.544-5.6865 15.139-5.3689-0.85825-12.694-2.5747-15.703 2.4053-4.1048 2.131-3.658 9.6474-8.0567 8.7228-4.0654-2.9811-10.673-1.8054-10.844 2.7701-1.3421 3.6299 12.143 5.1299 3.7295 5.9513-6.4882 0.9952-4.5149 7.8734 1.7923 7.2803 6.7507-1.0058 1.7882 1.8179 3.3063 5.2637 2.5873 3.5368 9.3594 1.97 10.622-1.5324 1.0517 4.0509 9.804 8.3493 12.51 2.9578 2.6663-4.3746-2.5212-8.059-3.163-12.009 7.2609-1.8383 11.975 6.0743 12.81 10.801 1.3135 10.559 9.0791 20.389 21.693 25.336 7.3894 3.9256 20.384 7.2034 17.522 15.821-5.1168 13.302-25.243 18.758-41.826 20.141-12.944 0.98671-23.849-6.6777-32.67-12.978-4.0989-3.5219-0.65602-11.708-8.7809-12.045-5.0349 17.17 15.174 34.114 37.563 35.299 18.672 1.2329 38.53-1.9674 53.928-10.211 12.232-7.8986 19.516-20.175 16.316-32.365-1.4808-10.758-13.237-18.485-26.017-22.076-6.3425-1.6932-13.183-5.8969-9.938-11.522 7.411-2.2648 12.855-7.0916 19.686-9.8 3.1579 2.5996 4.8578 9.1422 0.37767 11.439-4.4605 2.6296-2.8394 10.43 4.0128 8.1964 4.8867-3.9559 5.9616-2.1246 8.7809 1.7462 4.6283 2.6158 13.645-0.31632 9.8667-5.1316-2.7839-4.7578 5.4488 2.6622 9.1113 0.1069 6.6726-1.4214 3.2094-7.6057-2.3966-8.0292-8.693-1.6346 0.95447-3.274 2.4438-6.4036-0.43771-6.355-11.764-5.8689-16.146-2.0669-5.2536-5.1194-8.6216-13.751-18.884-13.72-4.7803-1.6218 4.7409-10.895 4.1544-4.6327 1.7143 5.8352 9.5734 6.2315 16.004 6.9134 3.663 3.5835 8.2378 8.7923 15.437 6.3076-0.45917-4.4826 3.9373 1.0822 8.4032-2.2451 2.1418-4.0653-3.9788-6.1846 4.06-7.3411 5.9593-3.9162-4.4833-6.2346-8.7337-5.488 3.621-5.2318-6.834-7.8638-10.77-3.95-2.1547 4.6805-11.543-0.27192-4.8856-2.8804 8.1645-1.8977 17.44 2.1668 25.22-1.9068 9.0633-3.387 21.992-4.7069 26.078-12.609 2.9524-9.0497-9.7009-13.963-18.685-17.155-8.2471-3.1347-17.903-6.981-26.872-2.9792-4.5498 3.1603-10.661 4.526-15.965 1.5907-5.407-2.7589-13.609-0.16278-17.931-4.0853 3.1886-2.0374 9.6433-5.5772 4.1998-8.511-3.2894-4.4751-10.34 2.049-11.234-0.59887-1.8177-1.5168-3.9066-3.5631-6.8926-3.6123z" opacity=".2"/>
 <path d="m76.069 5.2408c-7.3948 1.5763-2.2214 7.8416-11.388 6.8518-7.3945 2.4118 1.5996 7.2796 1.2667 8.8233-7.3072 4.4085 5.136 10.594 9.885 6.2056 6.3226 5.9653-8.6145 4.7579-11.85 8.4458-11.224 6.8063-21.055 16.02-21.008 27.404-2.6917 2.512-12.401-2.7838-15.383 2.6772-5.5857 2.6216-4.343 13.466-12.436 7.9555-8.0809-1.6587-10.993 8.8392-2.5365 10.179-8.5129 0.67992-6.6888 9.967 1.6029 9.1132 3.595 0.029053-0.20472 7.9193 7.2252 7.2795 6.2408-1.5163 6.539-2.8486 11.613 1.4611 9.8151 2.9243 11.516-8.7238 5.8539-12.615-0.53122-5.9885 11.472 4.7138 9.9257 8.2813 1.1139 12.042 11.146 22.458 25.296 27.748 8.0886 2.981 18.316 8.2986 12.931 16.106-8.7032 12.137-29.462 17.62-46.771 16.538-11.86-3.4978-26.487-9.4376-27.745-20.133-1.5864-7.1576-11.391-4.6759-8.7138 2.3118 1.2977 19.17 27.28 32.988 51.735 30.206 22.157-0.82112 46.878-7.6096 56.242-24.1 8.845-14.388 2.3022-34.73-18.822-40.538-6.2888-2.1505-19.728-6.3549-12.872-12.526 6.6234-1.918 11.485-6.8362 17.568-8.7402 3.8851 5.1137 0.299 9.1658-3.1096 13.319-3.0598 6.1014 7.9067 8.6623 12.006 3.6876 0.52605 6.0704 16.824 7.3216 15.747-0.11495-1.9382-3.0079 10.923 2.1019 11.991-3.7418 2.4435-4.594-6.5504-6.3081-9.1585-7.84 9.3444-1.9616 5.058-11.555-3.6351-10.228-6.9476 2.8016-10.334 1.8642-13.171-4.0982-7.0887-6.1493-6.4154-4.6459 3.3598-3.1836 6.2508 0.76009 8.0865 9.224 16.256 7.01 3.9171-2.4203 12.437 0.64753 12.372-6.1726-2.4931-3.4006 11.988-6.6416 1.6731-10.198-6.1733 2.0912-11.314-7.8926-5.2402-5.8444 10.972-3.5642 24.653-5.3997 32.527-12.686 6.5468-8.454-4.6851-16.457-14.505-19.337-10.22-4.1293-23.31-9.4307-33.884-2.9033-7.3758 5.2402-15.023-2.829-23.411-1.5599-12.706-0.30456 4.4775-4.937-0.79896-9.3355-2.4096-3.8899-9.2798-3.2865-12.614-1.7879-2.097-1.7116-4.5567-4.1261-8.0255-3.92zm50.702 51.138c-3.1935 2.0523-13.368 5.5071-7.2879 0.008896 2.434-0.08757 4.8737-0.46931 7.2879-0.008896zm-29.175 8.1607c9.4736 5.8463-4.3849 5.9187-2.2846 1.3416 0.60816-0.24641 2.2618-3.9757 2.2846-1.3416z" opacity=".2"/>
 <path d="m133.12 18.334c-2.0524-0.45489-4.164 0.31602-6.4099 0.38718-7.6466 0.24228-11.301 7.6252-19.01 3.8813-9.7761-4.6508-15.256-0.64527-20.825-4.5751-5.1396-2.2065 9.4719-5.0532 4.4842-8.5878-2.2351-2.6853-8.317-3.2336-11.125 2.1448 0.74325-5.3408-10.527-10.221-9.891-3.3185 2.9946 4.6173 1.6261 3.2672-5.1018 2.488-10.147 2.0042 0.17014 6.9281 4.5962 7.1909-4.4161-0.61305-12.838 6.2952-0.74394 6.8891 6.1755-5.7291 11.48 5.8797 4.147 6.377-8.3838 0.72455-14.322 5.7155-19.83 9.9657-8.3924 6.4765-10.593 11.979-10.9 18.837-0.28899 6.4545-5.6393 2.6678-10.795 2.5252-6.4284-0.58642-11.198 8.9548-12.854 13.379-7.5773-2.8838-9.3667-4.393-11.802-0.84531-3.9337 5.7298 11.529 5.3344 5.734 7.8928-11.043 0.6155-8.5201 8.748 5.0404 5.5702-8.3628 7.549 2.857 10.191 5.2091 5.7276 1.8986-4.0727 3.0468-0.18022 4.5842 1.8496 8.459 6.9665 12.361-3.1403 6.0842-8.4895-3.5601-5.7842 4.4503-5.6688 9.034-1.6924 5.7444 4.9834 4.9162 10.141 7.0824 16.131 6.2165 20.024 37.589 19.945 37.812 31.165 0.38116 19.179-38.807 25.184-47.635 24.781-8.2446-0.37598-23.03-8.1661-29.298-13.716-4.1421-3.6675-1.6302-11.771-6.8378-11.522-2.6371 6.9495 1.1422 14.407 6.4612 20.223 22.919 25.061 75.93 8.944 83.21 3.2208 5.3355-4.195 14.85-10.088 16.322-21.91 1.1593-9.3068-1.1984-14.927-5.1227-19.75-11.128-13.676-37.584-10.218-31.059-24.245 5.7259-1.9394 10.816-4.7439 15.568-7.8127 8.9603-7.1657 9.6048 3.9216 9.1342 8.8617-8.5906 3.7473-5.2754 12.483 2.4592 7.3142 6.7796-5.6921 2.8927 3.1752 9.6925 3.7679 15.132 0.95295-2.0349-11.285 7.4208-7.7096 6.5055 5.7144 19.392-1.481 4.4792-4.9821-11.202-3.0416 5.804-3.9831 2.6489-8.445-2.0624-3.4362-9.2159-3.4212-14.938 0.83746-4.7961-4.201-8.0444-12.691-15.78-13.868-10.661 0.30542-3.2259-7.8552 1.2566-10.142-0.03196 2.086 1.4895 5.8926 4.2093 8.2021 2.4817 1.645 6.8935 1.0462 10.004 2.0436 7.1094-0.47103 4.9905 9.4731 17.124 6.5639-7.1756-10.012 9.2535 6.1984 8.0987-5.0146-3.7298-3.0534-3.8461-1.7128 0.10892-3.0667 14.326-4.0198-4.3322-6.8229-6.5484-4.6391 6.4679-7.2969-5.9484-9.0619-10.347-2.2762-2.514-0.24206-8.5032-1.3672-6.514-4.12 0.005371-0.007465 0.006432-0.013691 0.011925-0.021152 0.032997-0.044815 0.034378-0.081219 0.071655-0.12691 3.3491-6.5392 14.95-1.4318 21.837-2.672 4.1468-0.74672 20.424-6.0224 25.514-8.1872 8.7922-3.7391 8.6539-11.779 1.4533-15.828-7.1621-4.9216-26.84-10.502-27.524-10.654z" fill="url(#l)"/>
 <g fill-rule="evenodd">
  <path d="m144.56 27.133c0.40286-1.088-12.832-3.8387-14.72-2.3392-2.2 1.7481-4.541 3.1354-1.7719 4.5599 2.0245 1.0414 15.889-0.59474 16.492-2.2207z" fill="url(#j)"/>
  <path d="m151.02 45.042c0.40285 1.088-10.032 5.0934-12.495 4.1865-0.64267-0.23667-4.4258-2.5446-1.6567-3.9691 2.0245-1.0414 13.549-1.8434 14.152-0.2174z" fill="url(#k)"/>
 </g>
 <path d="m133.12 18.334c-2.0524-0.45489-4.164 0.31602-6.4099 0.38718-7.6466 0.24228-11.301 7.6252-19.01 3.8813-9.7761-4.6508-15.256-0.64527-20.825-4.5751-5.1396-2.2065 9.4719-5.0532 4.4842-8.5878-2.2351-2.6853-8.317-3.2336-11.125 2.1448 0.74325-5.3408-10.527-10.221-9.891-3.3185 2.9946 4.6173 1.6261 3.2672-5.1018 2.488-10.147 2.0042 0.17014 6.9281 4.5962 7.1909-4.4161-0.61305-12.838 6.2952-0.74394 6.8891 6.1755-5.7291 11.48 5.8797 4.147 6.377-8.3838 0.72455-14.322 5.7155-19.83 9.9657-8.3924 6.4765-10.593 11.979-10.9 18.837-0.28899 6.4545-5.6393 2.6678-10.795 2.5252-6.4284-0.58642-11.198 8.9548-12.854 13.379-7.5773-2.8838-9.3667-4.393-11.802-0.84531-3.9337 5.7298 11.529 5.3344 5.734 7.8928-11.043 0.6155-8.5201 8.748 5.0404 5.5702-8.3628 7.549 2.857 10.191 5.2091 5.7276 1.8986-4.0727 3.0468-0.18022 4.5842 1.8496 8.459 6.9665 12.361-3.1403 6.0842-8.4895-3.5601-5.7842 4.4503-5.6688 9.034-1.6924 5.7444 4.9834 4.9162 10.141 7.0824 16.131 6.2165 20.024 37.589 19.945 37.812 31.165 0.38116 19.179-38.807 25.184-47.635 24.781-8.2446-0.37598-23.03-8.1661-29.298-13.716-4.1421-3.6675-1.6302-11.771-6.8378-11.522-2.6371 6.9495 1.1422 14.407 6.4612 20.223 22.919 25.061 75.93 8.944 83.21 3.2208 5.3355-4.195 14.85-10.088 16.322-21.91 1.1593-9.3068-1.1984-14.927-5.1227-19.75-11.128-13.676-37.584-10.218-31.059-24.245 5.7259-1.9394 10.816-4.7439 15.568-7.8127 8.9603-7.1657 9.6048 3.9216 9.1342 8.8617-8.5906 3.7473-5.2754 12.483 2.4592 7.3142 6.7796-5.6921 2.8927 3.1752 9.6925 3.7679 15.132 0.95295-2.0349-11.285 7.4208-7.7096 6.5055 5.7144 19.392-1.481 4.4792-4.9821-11.202-3.0416 5.804-3.9831 2.6489-8.445-2.0624-3.4362-9.2159-3.4212-14.938 0.83746-4.7961-4.201-8.0444-12.691-15.78-13.868-10.661 0.30542-3.2259-7.8552 1.2566-10.142-0.03196 2.086 1.4895 5.8926 4.2093 8.2021 2.4817 1.645 6.8935 1.0462 10.004 2.0436 7.1094-0.47103 4.9905 9.4731 17.124 6.5639-7.1756-10.012 9.2535 6.1984 8.0987-5.0146-3.7298-3.0534-3.8461-1.7128 0.10892-3.0667 14.326-4.0198-4.3322-6.8229-6.5484-4.6391 6.4679-7.2969-5.9484-9.0619-10.347-2.2762-2.514-0.24206-8.5032-1.3672-6.514-4.12 0.005371-0.007465 0.006432-0.013691 0.011925-0.021152 0.032997-0.044815 0.034378-0.081219 0.071655-0.12691 3.3491-6.5392 14.95-1.4318 21.837-2.672 4.1468-0.74672 20.424-6.0224 25.514-8.1872 8.7922-3.7391 8.6539-11.779 1.4533-15.828-7.1621-4.9216-26.84-10.502-27.524-10.654z" fill="url(#m)"/>
 <path d="m133.12 18.334c-2.0524-0.45489-4.164 0.31602-6.4099 0.38718-7.6466 0.24228-11.301 7.6252-19.01 3.8813-9.7761-4.6508-15.256-0.64527-20.825-4.5751-5.1396-2.2065 9.4719-5.0532 4.4842-8.5878-2.2351-2.6853-8.317-3.2336-11.125 2.1448 0.74325-5.3408-10.527-10.221-9.891-3.3185 2.9946 4.6173 1.6261 3.2672-5.1018 2.488-10.147 2.0042 0.17014 6.9281 4.5962 7.1909-4.4161-0.61305-12.838 6.2952-0.74394 6.8891 6.1755-5.7291 11.48 5.8797 4.147 6.377-8.3838 0.72455-14.322 5.7155-19.83 9.9657-8.3924 6.4765-10.593 11.979-10.9 18.837-0.28899 6.4545-5.6393 2.6678-10.795 2.5252-6.4284-0.58642-11.198 8.9548-12.854 13.379-7.5773-2.8838-9.3667-4.393-11.802-0.84531-3.9337 5.7298 11.529 5.3344 5.734 7.8928-11.043 0.6155-8.5201 8.748 5.0404 5.5702-8.3628 7.549 2.857 10.191 5.2091 5.7276 1.8986-4.0727 3.0468-0.18022 4.5842 1.8496 8.459 6.9665 12.361-3.1403 6.0842-8.4895-3.5601-5.7842 4.4503-5.6688 9.034-1.6924 5.7444 4.9834 4.9162 10.141 7.0824 16.131 6.2165 20.024 37.589 19.945 37.812 31.165 0.38116 19.179-38.807 25.184-47.635 24.781-8.2446-0.37598-23.03-8.1661-29.298-13.716-4.1421-3.6675-1.6302-11.771-6.8378-11.522-2.6371 6.9495 1.1422 14.407 6.4612 20.223 22.919 25.061 75.93 8.944 83.21 3.2208 5.3355-4.195 14.85-10.088 16.322-21.91 1.1593-9.3068-1.1984-14.927-5.1227-19.75-11.128-13.676-37.584-10.218-31.059-24.245 5.7259-1.9394 10.816-4.7439 15.568-7.8127 8.9603-7.1657 9.6048 3.9216 9.1342 8.8617-8.5906 3.7473-5.2754 12.483 2.4592 7.3142 6.7796-5.6921 2.8927 3.1752 9.6925 3.7679 15.132 0.95295-2.0349-11.285 7.4208-7.7096 6.5055 5.7144 19.392-1.481 4.4792-4.9821-11.202-3.0416 5.804-3.9831 2.6489-8.445-2.0624-3.4362-9.2159-3.4212-14.938 0.83746-4.7961-4.201-8.0444-12.691-15.78-13.868-10.661 0.30542-3.2259-7.8552 1.2566-10.142-0.03196 2.086 1.4895 5.8926 4.2093 8.2021 2.4817 1.645 6.8935 1.0462 10.004 2.0436 7.1094-0.47103 4.9905 9.4731 17.124 6.5639-7.1756-10.012 9.2535 6.1984 8.0987-5.0146-3.7298-3.0534-3.8461-1.7128 0.10892-3.0667 14.326-4.0198-4.3322-6.8229-6.5484-4.6391 6.4679-7.2969-5.9484-9.0619-10.347-2.2762-2.514-0.24206-8.5032-1.3672-6.514-4.12 0.005371-0.007465 0.006432-0.013691 0.011925-0.021152 0.032997-0.044815 0.034378-0.081219 0.071655-0.12691 3.3491-6.5392 14.95-1.4318 21.837-2.672 4.1468-0.74672 20.424-6.0224 25.514-8.1872 8.7922-3.7391 8.6539-11.779 1.4533-15.828-7.1621-4.9216-26.84-10.502-27.524-10.654z" fill="url(#n)"/>
 <path d="m72.592 6.1518c3.0927 7.4601-4.7415 5.7124-10.008 7.3411 2.1999 2.8035 17.223 3.7934 3.3518 7.056-4.1962 5.9015 7.954-0.78229 10.386 3.0647 5.0104 4.2948-0.058235 9.835-6.9869 9.6574-13.811 5.3648-25.57 15.893-25.729 28.117-0.93613 8.0131-13.97-1.6531-17.231 5.0247-5.5267 3.0008-3.3978 14.913-12.227 9.0516-10.282-4.7777-5.7078 5.3554 1.0858 5.6306 0.92052 3.5929-18.347 5.7036-2.0772 6.9847 13.118-3.4095 1.959 1.9387 4.1544 6.8778 7.1227-3.783 8.9988-3.3883 15.485 2.2807 8.8086-3.4598-8.7091-13.164 2.6437-15.217 15.081 1.6414 13.094 15.821 17.987 23.841 4.7067 10.197 19.304 13.323 29.411 19.671-63.624-59.341 22.001-104.73 81.388-89.233-0.051376-0.97905-0.30357-2.0189-0.89699-3.1716-7.8696-7.4889-21.314-11.322-33.094-13.649-9.1877-0.15302-16.698 9.1511-25.918 3.2785-5.9665-2.6889-17.142-0.03705-19.969-5.8444 5.6469-2.7283 8.1097-11.238-1.2746-6.4502-6.3704 9.9249-1.4933-4.3786-10.48-4.312z" fill="url(#i)"/>
</svg>
